<svg xmlns="http://www.w3.org/2000/svg" width="186.1" height="186.1" viewBox="0 0 186.1 186.1"><g fill="#bdffd9" stroke-width="4"><circle cx="93" cy="93" r="91" stroke="#7ba68d" stroke-miterlimit="10"/><path stroke="#512500" stroke-linecap="round" stroke-linejoin="round" d="M33.1 49.5L44.3 57m25.5 85.2l-7.5 11.2m73.8-98.3l-7.5 11.2m31.9 30.9l7.5 8.5m-82.6 45.5l7.5 8.4m10.1-133l7.5 8.5m15.3 72.2L112.1 119m48.8-62l-12.7 17.4m-97.9 52.1L37.5 144m47.6-78.1l8 6.5m39.3 66.5l7.9 6.6M21.8 93l16.9 8.5m30.7-4.3l-6.8 10.1M66 19.5l14.9 9.4"/></g></svg>